HIERARCHY
ROOT Hips
{
  OFFSET -28.535 97.2468 142.275
  CHANNELS 6 Xposition Yposition Zposition Zrotation Xrotation Yrotation
  JOINT LeftUpLeg
  {
    OFFSET 8.91 -6.27 -2.145
    CHANNELS 3 Zrotation Xrotation Yrotation
    JOINT LeftUpLegRoll
    {
      OFFSET 0 -22.7323 0
      CHANNELS 3 Zrotation Xrotation Yrotation
      JOINT LeftLeg
      {
        OFFSET 0 -22.1464 0
        CHANNELS 3 Zrotation Xrotation Yrotation
        JOINT LeftLegRoll
        {
          OFFSET 0 -22.0919 0
          CHANNELS 3 Zrotation Xrotation Yrotation
          JOINT LeftFoot
          {
            OFFSET 0 -18.609 0
            CHANNELS 3 Zrotation Xrotation Yrotation
            JOINT LeftToeBase
            {
              OFFSET 0 -6.26232 12.9547
              CHANNELS 3 Zrotation Xrotation Yrotation
              End Site
              {
                OFFSET 0 0 5.96686
              }
            }
          }
        }
      }
    }
  }
  JOINT RightUpLeg
  {
    OFFSET -8.91 -6.27 -2.145
    CHANNELS 3 Zrotation Xrotation Yrotation
    JOINT RightUpLegRoll
    {
      OFFSET 0 -22.7323 0
      CHANNELS 3 Zrotation Xrotation Yrotation
      JOINT RightLeg
      {
        OFFSET 0 -22.1464 0
        CHANNELS 3 Zrotation Xrotation Yrotation
        JOINT RightLegRoll
        {
          OFFSET 0 -22.0919 0
          CHANNELS 3 Zrotation Xrotation Yrotation
          JOINT RightFoot
          {
            OFFSET 0 -18.609 0
            CHANNELS 3 Zrotation Xrotation Yrotation
            JOINT RightToeBase
            {
              OFFSET 0 -6.26232 12.9547
              CHANNELS 3 Zrotation Xrotation Yrotation
              End Site
              {
                OFFSET 0 0.000942417 5.96686
              }
            }
          }
        }
      }
    }
  }
  JOINT Spine
  {
    OFFSET 0 7.43174 -2.06162
    CHANNELS 3 Zrotation Xrotation Yrotation
    JOINT Spine1
    {
      OFFSET -1.68772e-005 12.1899 -1.41951
      CHANNELS 3 Zrotation Xrotation Yrotation
      JOINT Spine2
      {
        OFFSET 0 11.8846 -1.0903
        CHANNELS 3 Zrotation Xrotation Yrotation
        JOINT Spine3
        {
          OFFSET 1.84329e-005 10.5137 1.04001
          CHANNELS 3 Zrotation Xrotation Yrotation
          JOINT LeftShoulder
          {
            OFFSET 7 4.56855 2.0674
            CHANNELS 3 Zrotation Xrotation Yrotation
            JOINT LeftArm
            {
              OFFSET 10.7073 0 0
              CHANNELS 3 Zrotation Xrotation Yrotation
              JOINT LeftArmRoll
              {
                OFFSET 15.2612 0 0
                CHANNELS 3 Zrotation Xrotation Yrotation
                JOINT LeftForeArm
                {
                  OFFSET 12.0443 0 0
                  CHANNELS 3 Zrotation Xrotation Yrotation
                  JOINT LeftForeArmRoll
                  {
                    OFFSET 16.3277 0 0
                    CHANNELS 3 Zrotation Xrotation Yrotation
                    JOINT LeftHand
                    {
                      OFFSET 10.3694 0 0
                      CHANNELS 3 Zrotation Xrotation Yrotation
                      JOINT LeftHandThumb1
                      {
                        OFFSET 4.34876 -0.798502 4.28243
                        CHANNELS 3 Zrotation Xrotation Yrotation
                        JOINT LeftHandThumb2
                        {
                          OFFSET 2.51259 -0.536099 0.707454
                          CHANNELS 3 Zrotation Xrotation Yrotation
                          JOINT LeftHandThumb3
                          {
                            OFFSET 2.54314 0 0
                            CHANNELS 3 Zrotation Xrotation Yrotation
                            JOINT LeftHandThumb4
                            {
                              OFFSET 2.66675 0 0
                              CHANNELS 3 Zrotation Xrotation Yrotation
                              End Site
                              {
                                OFFSET 1 0 0
                              }
                            }
                          }
                        }
                      }
                      JOINT LeftHandIndex1
                      {
                        OFFSET 8.82198 0.199729 3.47167
                        CHANNELS 3 Zrotation Xrotation Yrotation
                        JOINT LeftHandIndex2
                        {
                          OFFSET 4.22532 0 -0.000262656
                          CHANNELS 3 Zrotation Xrotation Yrotation
                          JOINT LeftHandIndex3
                          {
                            OFFSET 2.65394 0 -0.00016516
                            CHANNELS 3 Zrotation Xrotation Yrotation
                            JOINT LeftHandIndex4
                            {
                              OFFSET 1.95822 0 -0.00012217
                              CHANNELS 3 Zrotation Xrotation Yrotation
                              End Site
                              {
                                OFFSET 1 0 0
                              }
                            }
                          }
                        }
                      }
                      JOINT LeftHandMiddle1
                      {
                        OFFSET 8.80988 0.50089 1.30468
                        CHANNELS 3 Zrotation Xrotation Yrotation
                        JOINT LeftHandMiddle2
                        {
                          OFFSET 4.86325 0 0
                          CHANNELS 3 Zrotation Xrotation Yrotation
                          JOINT LeftHandMiddle3
                          {
                            OFFSET 2.76524 0 0
                            CHANNELS 3 Zrotation Xrotation Yrotation
                            JOINT LeftHandMiddle4
                            {
                              OFFSET 2.00563 0 0
                              CHANNELS 3 Zrotation Xrotation Yrotation
                              End Site
                              {
                                OFFSET 1 0 0
                              }
                            }
                          }
                        }
                      }
                      JOINT LeftHandRing1
                      {
                        OFFSET 8.89376 0.37992 -0.793159
                        CHANNELS 3 Zrotation Xrotation Yrotation
                        JOINT LeftHandRing2
                        {
                          OFFSET 4.53776 0 -0.000282138
                          CHANNELS 3 Zrotation Xrotation Yrotation
                          JOINT LeftHandRing3
                          {
                            OFFSET 2.30453 0 -0.000143448
                            CHANNELS 3 Zrotation Xrotation Yrotation
                            JOINT LeftHandRing4
                            {
                              OFFSET 1.92335 0 -0.00012044
                              CHANNELS 3 Zrotation Xrotation Yrotation
                              End Site
                              {
                                OFFSET 1 0 0
                              }
                            }
                          }
                        }
                      }
                      JOINT LeftHandPinky1
                      {
                        OFFSET 8.88227 -0.313027 -2.49036
                        CHANNELS 3 Zrotation Xrotation Yrotation
                        JOINT LeftHandPinky2
                        {
                          OFFSET 3.0441 0 0
                          CHANNELS 3 Zrotation Xrotation Yrotation
                          JOINT LeftHandPinky3
                          {
                            OFFSET 1.9745 0 0
                            CHANNELS 3 Zrotation Xrotation Yrotation
                            JOINT LeftHandPinky4
                            {
                              OFFSET 1.66661 0 0
                              CHANNELS 3 Zrotation Xrotation Yrotation
                              End Site
                              {
                                OFFSET 1 0 0
                              }
                            }
                          }
                        }
                      }
                    }
                  }
                }
              }
            }
          }
          JOINT RightShoulder
          {
            OFFSET -7 4.56855 2.0673
            CHANNELS 3 Zrotation Xrotation Yrotation
            JOINT RightArm
            {
              OFFSET -10.7073 0 0
              CHANNELS 3 Zrotation Xrotation Yrotation
              JOINT RightArmRoll
              {
                OFFSET -15.2612 0 0
                CHANNELS 3 Zrotation Xrotation Yrotation
                JOINT RightForeArm
                {
                  OFFSET -12.0444 0 0
                  CHANNELS 3 Zrotation Xrotation Yrotation
                  JOINT RightForeArmRoll
                  {
                    OFFSET -16.3276 0 0
                    CHANNELS 3 Zrotation Xrotation Yrotation
                    JOINT RightHand
                    {
                      OFFSET -10.3694 0 0
                      CHANNELS 3 Zrotation Xrotation Yrotation
                      JOINT RightHandThumb1
                      {
                        OFFSET -4.34838 -0.798501 4.28282
                        CHANNELS 3 Zrotation Xrotation Yrotation
                        JOINT RightHandThumb2
                        {
                          OFFSET -2.51253 -0.536099 0.707679
                          CHANNELS 3 Zrotation Xrotation Yrotation
                          JOINT RightHandThumb3
                          {
                            OFFSET -2.54159 0 0.0888232
                            CHANNELS 3 Zrotation Xrotation Yrotation
                            JOINT RightHandThumb4
                            {
                              OFFSET -2.66512 0 0.0931403
                              CHANNELS 3 Zrotation Xrotation Yrotation
                              End Site
                              {
                                OFFSET 1 0 0
                              }
                            }
                          }
                        }
                      }
                      JOINT RightHandIndex1
                      {
                        OFFSET -8.82167 0.199732 3.47246
                        CHANNELS 3 Zrotation Xrotation Yrotation
                        JOINT RightHandIndex2
                        {
                          OFFSET -4.22532 0 0.0001146
                          CHANNELS 3 Zrotation Xrotation Yrotation
                          JOINT RightHandIndex3
                          {
                            OFFSET -2.65394 0 7.19601e-005
                            CHANNELS 3 Zrotation Xrotation Yrotation
                            JOINT RightHandIndex4
                            {
                              OFFSET -1.95822 0 5.30956e-005
                              CHANNELS 3 Zrotation Xrotation Yrotation
                              End Site
                              {
                                OFFSET 1 0 0
                              }
                            }
                          }
                        }
                      }
                      JOINT RightHandMiddle1
                      {
                        OFFSET -8.80976 0.500893 1.30547
                        CHANNELS 3 Zrotation Xrotation Yrotation
                        JOINT RightHandMiddle2
                        {
                          OFFSET -4.86325 0 0.000131881
                          CHANNELS 3 Zrotation Xrotation Yrotation
                          JOINT RightHandMiddle3
                          {
                            OFFSET -2.76524 0 7.49854e-005
                            CHANNELS 3 Zrotation Xrotation Yrotation
                            JOINT RightHandMiddle4
                            {
                              OFFSET -2.00563 0 5.43888e-005
                              CHANNELS 3 Zrotation Xrotation Yrotation
                              End Site
                              {
                                OFFSET 1 0 0
                              }
                            }
                          }
                        }
                      }
                      JOINT RightHandRing1
                      {
                        OFFSET -8.89383 0.379922 -0.792364
                        CHANNELS 3 Zrotation Xrotation Yrotation
                        JOINT RightHandRing2
                        {
                          OFFSET -4.53776 0 0.000123049
                          CHANNELS 3 Zrotation Xrotation Yrotation
                          JOINT RightHandRing3
                          {
                            OFFSET -2.30453 0 6.24859e-005
                            CHANNELS 3 Zrotation Xrotation Yrotation
                            JOINT RightHandRing4
                            {
                              OFFSET -1.92335 0 5.21537e-005
                              CHANNELS 3 Zrotation Xrotation Yrotation
                              End Site
                              {
                                OFFSET 1 0 0
                              }
                            }
                          }
                        }
                      }
                      JOINT RightHandPinky1
                      {
                        OFFSET -8.8825 -0.313025 -2.48956
                        CHANNELS 3 Zrotation Xrotation Yrotation
                        JOINT RightHandPinky2
                        {
                          OFFSET -3.0478 0 8.26466e-005
                          CHANNELS 3 Zrotation Xrotation Yrotation
                          JOINT RightHandPinky3
                          {
                            OFFSET -1.9769 0 5.36145e-005
                            CHANNELS 3 Zrotation Xrotation Yrotation
                            JOINT RightHandPinky4
                            {
                              OFFSET -1.66864 0 4.5245e-005
                              CHANNELS 3 Zrotation Xrotation Yrotation
                              End Site
                              {
                                OFFSET 1 0 0
                              }
                            }
                          }
                        }
                      }
                    }
                  }
                }
              }
            }
          }
          JOINT Neck
          {
            OFFSET 0 11.5156 1.94702
            CHANNELS 3 Zrotation Xrotation Yrotation
            JOINT Head
            {
              OFFSET -1.26215e-005 11.0733 1.65432
              CHANNELS 3 Zrotation Xrotation Yrotation
              End Site
              {
                OFFSET 0 17.7047 0
              }
            }
          }
        }
      }
    }
  }
}
MOTION
Frames:	4
Frame Time:	0.0416667
-26.373 62.6523 143.788 -5.06211 16.4448 0.857989 128.689 -82.1778 124.729 5.82014e-021 7.23448e-018 -0.118152 -179.99 77.8022 171.391 5.48303e-020 2.0854e-017 -0.340584 5.43232 -14.4383 0.688415 -2.37527 -5.69068 -0.235679 -27.3317 -87.0926 -28.0342 1.26585e-019 2.96361e-017 -0.484016 180 75.0189 178.635 3.87066e-019 5.21022e-017 -0.850954 1.93302 -25.8074 0.437938 5.03998 -6.67768 0.58735 1.13711 7.3501 0.791169 0.154047 0.474131 0.570126 0.112855 0.479709 0.575262 0.0714715 0.485928 0.576773 20.6097 0 -24.4759 -35.4049 -32.6209 -67.4925 0 -2.57986 0 -13.3157 -20.1587 -34.4806 -0 4.21457 0 22.09 4.58658 36.2678 -13.5736 2.3752 -6.52975 -12.651 -0.438192 1.95143 5.46495 0 0 -0 0 0 -4.77556 -0.166573 -1.10167 -18.7502 0 0 3.91478 0 0 -0 0 0 -0.136842 -0.00477878 0.353328 -15.0142 0 0 -44.1712 0 0 -0 0 0 -0.352517 -0.0123102 5.14301 -16.7644 0 0 -12.9132 0 0 -0 0 0 -5.92939 -0.206688 10.1188 -10.2115 0 0 -4.2169 0 0 -0 0 0 -18.437 2.26817e-015 21.0083 33.9845 -34.856 69.91 -1.38357e-015 -11.1581 -1.88401e-016 0.473023 -1.41317 18.5088 -7.35269e-006 2.35058 -2.71106e-006 25.5406 -10.6472 -35.1362 13.5598 2.38952 6.45276 12.2773 -0.425452 -1.95424 -4.64522 0 0 0 0 -0 6.21993 -0.216778 0.991147 24.1616 0 0 -0.652829 0 0 0 0 -0 2.00151 -0.0698801 1.30615 20.5827 0 0 44.6226 0 0 0 0 -0 2.15104 -0.0750984 -2.85517 21.7114 0 0 14.7062 0 0 0 0 -0 5.83006 -0.203238 -7.77393 15.264 0 0 6.50992 0 0 0 0 -0 12.8152 -23.0691 1.67159 -14.7907 -26.9253 2.69063 
-26.7256 65.7655 144.871 -6.81498 13.0565 0.778612 77.0787 -81.3374 72.0106 3.68165e-020 1.60415e-017 -0.261987 -179.971 80.6608 170.234 2.40659e-019 4.11389e-017 -0.671886 6.33142 -15.2229 0.847109 -2.34804 -5.71004 -0.235792 5.79593 -79.639 3.67969 1.96157e-019 3.67519e-017 -0.600237 179.866 79.1675 177.388 5.14177e-019 6.00791e-017 -0.981247 2.53474 -25.9416 0.579402 5.14261 -6.79117 0.609709 0.45392 5.59148 0.846248 -0.139067 0.564462 0.634369 -0.172603 0.568033 0.622304 -0.205147 0.572048 0.607949 63.9982 0 -12.7223 -33.4983 -57.2379 -50.6602 0 -10.4692 0 -49.4873 -39.6653 -61.3917 -0 0.120399 0 40.1168 0.3026 -0.822703 -13.5769 2.37228 -6.54732 -12.9048 -0.446837 1.94947 4.97728 0 0 -0 0 0 -5.87021 -0.204635 -1.01792 -22.8504 0 0 1.44362 0 0 -0 0 0 -1.57209 -0.0548935 0.608249 -19.2243 0 0 -44.4789 0 0 -0 0 0 -1.7204 -0.0600705 4.92279 -20.5134 0 0 -14.2101 0 0 -0 0 0 -5.93008 -0.206713 9.85538 -13.9982 0 0 -5.76226 0 0 -0 0 0 -71.8279 -4.07875e-015 5.61651 27.7333 -56.4642 42.3701 -2.36904e-015 -18.6632 -3.78234e-016 5.95889 -12.5469 25.6633 -7.39653e-006 1.42437 -2.70962e-006 11.3678 -2.32551 -24.903 13.5715 2.37448 6.53611 12.1305 -0.42044 -1.95533 -4.85282 0 0 0 0 -0 5.74897 -0.200421 1.0248 22.3984 0 0 -1.71655 0 0 0 0 -0 1.38025 -0.0481944 1.39793 18.774 0 0 44.4919 0 0 0 0 -0 1.54947 -0.0541021 -2.92838 20.0993 0 0 14.1448 0 0 0 0 -0 5.82935 -0.203214 -7.88724 13.6391 0 0 5.83885 0 0 0 0 -0 17.228 -34.4463 4.10312 -16.5086 -21.8514 4.06529 
-26.6065 73.74 148.736 -8.07134 4.30458 -1.0528 32.6902 -66.4845 26.4764 6.93036e-020 2.20514e-017 -0.36014 180 87.7843 168.784 1.94088e-019 3.69023e-017 -0.602691 5.91038 -13.3639 0.693025 -1.01665 -7.08814 -0.125464 5.80324 -59.3076 1.63657 5.0769e-019 5.9682e-017 -0.97476 -0.00028574 89.5321 -1.3819 5.31854e-019 6.10856e-017 -0.997688 0.596771 -26.2031 0.134056 5.14251 -6.79024 0.609639 0.223318 4.15251 0.115114 -0.098228 -0.00527311 0.0311518 -0.0994678 -0.00520925 0.0259008 -0.100461 -0.00513762 0.0205987 67.8628 0 -3.80572 -30.891 -67.7942 -35.2347 0 -5.46308 0 -59.8434 -22.4305 -77.5004 0 -3.69671 0 38.2621 -1.6685 -4.80743 -13.5258 2.41681 -6.2798 -13.3746 -0.462811 1.94574 4.35257 0 0 -0 0 0 -7.33084 -0.255299 -0.907377 -28.3218 0 0 -1.85807 0 0 -0 0 0 -3.48838 -0.121742 0.942328 -24.842 0 0 -44.8868 0 0 -0 0 0 -3.54939 -0.123868 4.63361 -25.5153 0 0 -15.9471 0 0 -0 0 0 -5.9317 -0.206769 9.50387 -19.0498 0 0 -7.82273 0 0 -0 0 0 -86.4897 -7.46887e-015 -7.74906 25.1088 -51.0959 31.3 -1.19729e-015 -9.68363 -1.01419e-016 8.03043 -21.9379 20.688 -7.40776e-006 1.18703 -2.70936e-006 14.5358 -2.73504 -21.2043 13.5708 2.37542 6.5309 12.0602 -0.418043 -1.95584 -4.98807 0 0 0 0 -0 5.44848 -0.189978 1.0463 21.2735 0 0 -2.39499 0 0 0 0 -0 0.983838 -0.0343547 1.4565 17.6199 0 0 44.4084 0 0 0 0 -0 1.16574 -0.0407057 -2.97487 19.0708 0 0 13.7869 0 0 0 0 -0 5.82933 -0.203213 -7.95954 12.6023 0 0 5.41043 0 0 0 0 -0 16.664 -38.597 5.12996 -15.6715 -21.2284 4.39545 
-25.429 86.6998 155.331 -7.44553 -13.4875 -6.76861 16.4015 -35.0576 10.5795 7.03652e-021 6.94044e-018 -0.11335 -1.22606 77.561 -9.3667 1.23286e-020 7.94201e-018 -0.129708 1.29016 1.42492 0.0877442 2.1816 -11.1518 0.403318 1.7237 -24.1168 -0.696485 1.59675e-019 3.40541e-017 -0.556172 -0.382849 68.3016 4.44801 3.63368e-020 1.32768e-017 -0.216839 -0.0923808 -18.0485 -0.462128 1.23659 -7.06079 0.117414 -0.594442 2.0089 0.183667 -0.5393 -0.737613 0.164385 -0.544063 -0.737802 0.145701 -0.548517 -0.737721 0.126986 48.9071 0 -8.58372 -18.2973 -73.3943 -20.0867 0 -2.27945 0 -44.4031 -0.0428666 -89.9562 0 -6.83617 0 54.7618 2.62182 5.16711 -13.3134 2.60887 -5.13388 -14.4876 -0.500528 1.93637 3.29848 0 0 -0 0 0 -9.68251 -0.336504 -0.73232 -37.1329 0 0 -7.18734 0 0 -0 0 0 -6.57632 -0.229138 1.46604 -33.8857 0 0 -45.5377 0 0 -0 0 0 -6.50246 -0.226576 4.17835 -33.5666 0 0 -18.7652 0 0 -0 0 0 -5.93464 -0.206871 8.93791 -27.1785 0 0 -11.129 0 0 -0 0 0 -78.0591 -6.23102e-015 -5.72527 23.6918 -43.9354 39.852 -1.30918e-015 -10.5699 -1.19953e-016 -0.202762 1.25126 9.20531 -7.42041e-006 0.919466 -2.70913e-006 20.8075 -2.2608 -12.2514 13.5723 2.37344 6.54187 12.1181 -0.42002 -1.95542 -4.87134 0 0 0 0 -0 5.70805 -0.199 1.02773 22.2452 0 0 -1.80898 0 0 0 0 -0 1.32626 -0.0463108 1.4059 18.6168 0 0 44.4806 0 0 0 0 -0 1.49721 -0.0522785 -2.93474 19.9592 0 0 14.096 0 0 0 0 -0 5.83019 -0.203243 -7.89709 13.4979 0 0 5.78058 0 0 0 0 -0 8.60717 -32.6642 4.58986 -10.1041 -24.7696 4.4704 
